<svg width="440" height="40" viewBox="0 0 440 40" fill="none" xmlns="http://www.w3.org/2000/svg">
<g clip-path="url(#clip0_1_14)">
<path d="M0 26.71L4.72 26.13C5.11 31.04 6.08 32.74 10.07 32.74C14.6 32.74 15.42 30.74 15.42 27.34C15.42 18.73 0.73 20.73 0.73 9.24C0.73 3.79 3.06 0 10.22 0C17.61 0 19.07 3.36 19.61 10.22L15 10.66C14.6 6 14 4.28 10.12 4.28C6.24 4.28 5.35 6.08 5.35 9C5.35 16.88 20.09 15.23 20.09 27.15C20.09 33.04 17.86 37.07 10.09 37.07C2.32 37.07 0.53 33.18 0 26.71Z" fill="#201D00"/>
<path d="M34.4 0.290039H39.8L47.53 36.78H42.86L41 28.07H33L31.21 36.78H26.61L34.4 0.290039ZM40.29 23.84L37 8.08004L33.77 23.84H40.29Z" fill="#201D00"/>
<path d="M56.6801 0.290039H61.4001V32.4H72.6901L73.2701 36.78H56.6801V0.290039Z" fill="#201D00"/>
<path d="M90.45 0.290039H95.85L103.59 36.78H98.91L97.07 28.07H89.07L87.28 36.78H82.66L90.45 0.290039ZM96.34 23.84L93.08 8.08004L89.82 23.84H96.34Z" fill="#201D00"/>
<path d="M125.19 24.91V12.11C125.19 3.55 128.11 0 135.45 0C142.79 0 145.77 3.55 145.77 12.11V24.91C145.77 33.43 142.85 37.07 135.45 37.07C128.05 37.07 125.19 33.43 125.19 24.91ZM141 24.52V12.52C141 6.83 140 4.3 135.45 4.3C130.9 4.3 130 6.86 130 12.55V24.55C130 30.15 131 32.73 135.49 32.73C139.98 32.73 141 30.12 141 24.52Z" fill="#201D00"/>
<path d="M155 26.32L159.58 25.93C160.01 30.85 160.58 32.74 164.93 32.74C169.02 32.74 169.99 30.6 169.99 26.08C169.99 21.21 169.11 19.56 165.08 19.56H162.45V15.23H165C169 15.23 169.62 13.33 169.62 9.54C169.62 6.28 169.03 4.28 164.95 4.28C160.87 4.28 160.28 6.18 159.84 10.9L155.22 10.56C155.79 4.38 157.15 0 165 0C172.2 0 174.29 3.26 174.29 9.1C174.29 13.23 173.56 15.76 170.45 17.22C173.71 18.29 174.58 21.46 174.58 26.42C174.58 33.57 172.15 37.07 164.9 37.07C156.57 37.07 155.5 32.79 155 26.32Z" fill="#201D00"/>
<path d="M207 21.15H209.32L212.63 36.78H210.63L209.84 33.05H206.42L205.65 36.78H203.65L207 21.15ZM209.53 31.24L208.13 24.49L206.75 31.24H209.53Z" fill="#201D00"/>
<path d="M231.46 30.57H229.54V36.78H227.54V21.15H231.79C234.94 21.15 235.79 22.4 235.79 25.38V26.32C235.79 28.63 235.2 29.95 233.47 30.4L235.91 36.78H233.83L231.46 30.57ZM231.63 28.72C233.46 28.72 233.8 28.15 233.8 26.26V25.44C233.8 23.55 233.46 22.99 231.8 22.99H229.52V28.72H231.63Z" fill="#201D00"/>
<path d="M250.61 31.7V26.24C250.61 22.57 251.9 21.03 255 21.03C258.1 21.03 259.42 22.57 259.42 26.24V31.7C259.42 33.95 258.9 35.41 257.76 36.18L258.76 39.39H256.69L255.9 36.78C255.609 36.8216 255.314 36.8416 255.02 36.84C251.88 36.84 250.61 35.34 250.61 31.7ZM255.34 35L254.34 31.65H256.4L257.09 33.94C257.326 33.1494 257.424 32.324 257.38 31.5V26.4C257.38 23.96 256.94 22.88 255 22.88C253.06 22.88 252.65 23.96 252.65 26.4V31.53C252.65 33.93 253.07 35.03 255 35.03L255.34 35Z" fill="#201D00"/>
<path d="M274.59 31.7V21.15H276.59V31.53C276.59 33.93 276.88 35.03 278.82 35.03C280.76 35.03 281.11 33.93 281.11 31.53V21.15H283.11V31.7C283.11 35.34 281.9 36.91 278.84 36.91C275.78 36.91 274.59 35.34 274.59 31.7Z" fill="#201D00"/>
<path d="M298.9 21.15H300.9V36.78H298.9V21.15Z" fill="#201D00"/>
<path d="M319.1 23H315.89V21.15H324.36V23H321.13V36.78H319.13L319.1 23Z" fill="#201D00"/>
<path d="M339.23 21.15H346.33L346.08 23H341.25V27.52H345.19V29.44H341.25V34.88H346.08L346.33 36.75H339.23V21.15Z" fill="#201D00"/>
<path d="M363.62 23H360.41V21.15H368.88V23H365.64V36.78H363.64L363.62 23Z" fill="#201D00"/>
<path d="M383.47 31.7V21.15H385.47V31.53C385.47 33.93 385.76 35.03 387.7 35.03C389.64 35.03 389.99 33.93 389.99 31.53V21.15H391.99V31.7C391.99 35.34 390.78 36.91 387.72 36.91C384.66 36.91 383.47 35.34 383.47 31.7Z" fill="#201D00"/>
<path d="M411.58 30.57H409.66V36.78H407.66V21.15H411.91C415.06 21.15 415.91 22.4 415.91 25.38V26.32C415.91 28.63 415.32 29.95 413.59 30.4L416 36.78H414L411.58 30.57ZM411.75 28.72C413.58 28.72 413.91 28.15 413.91 26.26V25.44C413.91 23.55 413.58 22.99 411.91 22.99H409.64V28.72H411.75Z" fill="#201D00"/>
<path d="M433.5 21.15H435.81L439.12 36.78H437.12L436.33 33.05H432.92L432.14 36.78H430.14L433.5 21.15ZM436 31.24L434.6 24.49L433.23 31.24H436Z" fill="#201D00"/>
</g>
<defs>
<clipPath id="clip0_1_14">
<rect width="439.12" height="39.39" fill="white"/>
</clipPath>
</defs>
</svg>
