<svg width="135" height="40" viewBox="0 0 135 40" fill="none" xmlns="http://www.w3.org/2000/svg">
<g clip-path="url(#clip0_1_56)">
<path d="M101.865 0H79.9199V40H101.865V0Z" fill="black"/>
<path d="M68.9448 0H47V40H68.9448V0Z" fill="black"/>
<path d="M134.779 40L117.346 35.4888V4.5112L134.779 0V40Z" fill="black"/>
</g>
<path d="M2.11914 19.0732V25H0.916016V17.6035H2.05078L2.11914 19.0732ZM1.87305 21.0215L1.3125 21.001C1.30794 20.4951 1.35807 20.028 1.46289 19.5996C1.56771 19.1667 1.72493 18.7907 1.93457 18.4717C2.14876 18.1527 2.41536 17.9066 2.73438 17.7334C3.05794 17.5557 3.43392 17.4668 3.8623 17.4668C4.14486 17.4668 4.4069 17.5169 4.64844 17.6172C4.89453 17.7129 5.10872 17.8656 5.29102 18.0752C5.47331 18.2848 5.61458 18.5537 5.71484 18.8818C5.81966 19.21 5.87207 19.6064 5.87207 20.0713V25H4.66211V20.1328C4.66211 19.7454 4.6097 19.4355 4.50488 19.2031C4.40462 18.9707 4.26107 18.8021 4.07422 18.6973C3.88737 18.5879 3.66406 18.5332 3.4043 18.5332C3.10807 18.5332 2.8597 18.5993 2.65918 18.7314C2.46322 18.8636 2.30599 19.0459 2.1875 19.2783C2.07357 19.5107 1.99154 19.7773 1.94141 20.0781C1.89583 20.3743 1.87305 20.6888 1.87305 21.0215ZM5.8584 20.3242L5.05176 20.584C5.0472 20.1784 5.09733 19.7887 5.20215 19.415C5.30697 19.0413 5.46191 18.7087 5.66699 18.417C5.87663 18.1253 6.13639 17.8952 6.44629 17.7266C6.75618 17.5534 7.11621 17.4668 7.52637 17.4668C7.86361 17.4668 8.16211 17.5192 8.42188 17.624C8.68164 17.7288 8.90039 17.8906 9.07812 18.1094C9.26042 18.3236 9.39714 18.5993 9.48828 18.9365C9.57943 19.2738 9.625 19.6748 9.625 20.1396V25H8.41504V20.126C8.41504 19.7113 8.36263 19.39 8.25781 19.1621C8.15755 18.9297 8.014 18.7679 7.82715 18.6768C7.6403 18.5811 7.41699 18.5332 7.15723 18.5332C6.94759 18.5332 6.76074 18.5811 6.59668 18.6768C6.43717 18.7725 6.30273 18.9046 6.19336 19.0732C6.08398 19.2373 5.99967 19.4264 5.94043 19.6406C5.88574 19.8548 5.8584 20.0827 5.8584 20.3242ZM14.7957 25.1367C14.3536 25.1367 13.9549 25.0706 13.5994 24.9385C13.2439 24.8063 12.9409 24.6058 12.6902 24.3369C12.4396 24.0635 12.2482 23.7194 12.116 23.3047C11.9839 22.89 11.9178 22.4001 11.9178 21.835V21.001C11.9178 20.3493 11.993 19.7979 12.1434 19.3467C12.2983 18.8955 12.5057 18.5332 12.7654 18.2598C13.0252 17.9818 13.3191 17.7812 13.6473 17.6582C13.9754 17.5306 14.3126 17.4668 14.659 17.4668C15.1238 17.4668 15.5203 17.542 15.8484 17.6924C16.1766 17.8428 16.4432 18.0661 16.6482 18.3623C16.8533 18.6585 17.0037 19.0231 17.0994 19.4561C17.1997 19.889 17.2498 20.388 17.2498 20.9531V21.6572H12.6287V20.625H16.0398V20.4541C16.0216 20.0713 15.9692 19.734 15.8826 19.4424C15.8006 19.1507 15.6639 18.9229 15.4725 18.7588C15.2811 18.5902 15.0099 18.5059 14.659 18.5059C14.4357 18.5059 14.2283 18.5446 14.0369 18.6221C13.8501 18.695 13.6883 18.8249 13.5516 19.0117C13.4194 19.194 13.3146 19.4469 13.2371 19.7705C13.1642 20.0941 13.1277 20.5042 13.1277 21.001V21.835C13.1277 22.2314 13.1642 22.5732 13.2371 22.8604C13.3146 23.1429 13.4262 23.3776 13.5721 23.5645C13.7225 23.7467 13.9048 23.8835 14.1189 23.9746C14.3377 24.0612 14.5861 24.1045 14.8641 24.1045C15.2697 24.1045 15.6046 24.027 15.8689 23.8721C16.1333 23.7126 16.3634 23.5098 16.5594 23.2637L17.1951 24.0225C17.063 24.2093 16.8898 24.3893 16.6756 24.5625C16.466 24.7311 16.2062 24.8701 15.8963 24.9795C15.591 25.0843 15.2241 25.1367 14.7957 25.1367ZM20.6227 19.1826V25H19.4127V17.6035H20.5543L20.6227 19.1826ZM20.3287 21.0215L19.8365 21.001C19.832 20.4951 19.8889 20.028 20.0074 19.5996C20.1305 19.1667 20.3036 18.7907 20.527 18.4717C20.7548 18.1527 21.026 17.9066 21.3404 17.7334C21.6549 17.5557 22.0035 17.4668 22.3863 17.4668C22.6871 17.4668 22.9605 17.5169 23.2066 17.6172C23.4527 17.7129 23.6624 17.8678 23.8355 18.082C24.0087 18.2962 24.1409 18.5742 24.232 18.916C24.3277 19.2533 24.3756 19.6657 24.3756 20.1533V25H23.1656V20.1396C23.1656 19.7523 23.1223 19.4424 23.0357 19.21C22.9537 18.973 22.8261 18.8021 22.6529 18.6973C22.4843 18.5879 22.2701 18.5332 22.0104 18.5332C21.7734 18.5332 21.5523 18.5993 21.3473 18.7314C21.1422 18.8636 20.9622 19.0459 20.8072 19.2783C20.6568 19.5107 20.5383 19.7773 20.4518 20.0781C20.3697 20.3743 20.3287 20.6888 20.3287 21.0215ZM30.6332 23.291V17.6035H31.8432V25H30.6947L30.6332 23.291ZM30.8588 21.7324L31.3373 21.7188C31.3373 22.2109 31.294 22.6667 31.2074 23.0859C31.1254 23.5007 30.9887 23.8607 30.7973 24.166C30.6104 24.4714 30.362 24.7106 30.0521 24.8838C29.7423 25.0524 29.3617 25.1367 28.9105 25.1367C28.6052 25.1367 28.3272 25.0843 28.0766 24.9795C27.8305 24.8747 27.6163 24.7129 27.434 24.4941C27.2563 24.2754 27.1173 23.9906 27.017 23.6396C26.9213 23.2887 26.8734 22.8672 26.8734 22.375V17.6035H28.0766V22.3887C28.0766 22.7214 28.1062 22.9971 28.1654 23.2158C28.2247 23.43 28.3044 23.6009 28.4047 23.7285C28.5049 23.8516 28.6166 23.9382 28.7396 23.9883C28.8627 24.0384 28.988 24.0635 29.1156 24.0635C29.544 24.0635 29.8858 23.9609 30.141 23.7559C30.3962 23.5462 30.5785 23.266 30.6879 22.915C30.8018 22.5596 30.8588 22.1654 30.8588 21.7324Z" fill="black"/>
<defs>
<clipPath id="clip0_1_56">
<rect width="87.7794" height="40" fill="white" transform="translate(47)"/>
</clipPath>
</defs>
</svg>
